<svg width="685" height="648" viewBox="0 0 685 648" fill="none" xmlns="http://www.w3.org/2000/svg">
<path fill-rule="evenodd" clip-rule="evenodd" d="M475.049 272.938L471.59 273.145C473.776 272.851 475.081 272.667 475.081 272.667L475.049 272.938Z" fill="url(#paint0_linear_140_4811)"/>
<path fill-rule="evenodd" clip-rule="evenodd" d="M664.244 277.911C664.244 395.168 569.14 490.215 451.838 490.215C334.536 490.215 239.422 395.157 239.422 277.911C239.422 160.665 334.536 65.5957 451.838 65.5957C491.787 65.5957 529.148 76.6191 561.07 95.7959C607.012 123.376 641.642 167.829 656.402 220.565C661.514 238.807 664.244 258.038 664.244 277.911Z" fill="url(#paint1_linear_140_4811)"/>
<path d="M453.507 444.457C573.302 444.457 670.415 347.391 670.415 227.653C670.415 107.915 573.302 10.8481 453.507 10.8481C333.712 10.8481 236.599 107.915 236.599 227.653C236.599 347.391 333.712 444.457 453.507 444.457Z" stroke="black" stroke-linecap="round" stroke-linejoin="round" stroke-dasharray="6 6"/>
<path d="M656.401 220.576C641.642 167.829 607.011 123.376 561.07 95.8069C552.553 90.6865 543.635 86.1533 534.39 82.2505C491.33 88.371 454.535 93.6109 450.098 94.2306C439.417 95.7308 421.156 99.7314 419.557 118.56C418.121 135.639 411.715 213.749 410.812 221.217C410.17 226.501 411.084 235.915 417.229 240.405H416.892C416.892 240.405 439.232 259.006 443.061 261.789C446.889 264.572 450.544 266.137 457.32 265.441C463.976 264.756 472.079 263.387 472.394 263.343L469.74 289.51L470.328 288.858L469.74 289.782L496.823 310.84C496.823 310.84 550.77 251.146 551.118 251.341C551.357 251.472 617.431 242.329 660.197 236.47C659.142 231.099 657.869 225.794 656.401 220.576ZM475.048 237.067L471.589 237.274C473.776 236.981 475.081 236.796 475.081 236.796L475.048 237.067Z" fill="url(#paint2_linear_140_4811)"/>
<path d="M566.203 571.43L547.975 626.949C547.975 626.949 476.277 633.265 435.469 637.092C394.661 640.929 334.068 651.464 268.625 618.839C195.568 582.42 173.25 538.381 164.223 509.54C155.206 480.688 130.005 395.088 130.005 395.088L145.82 338.459L147.157 340.753C147.767 342.775 150.888 353.201 166.909 406.72C183.343 461.609 185.127 503.919 258.445 548.839C331.773 593.748 396.162 587.976 429.008 584.823C459.321 581.91 552.282 572.789 566.203 571.43Z" fill="url(#paint3_linear_140_4811)" stroke="black" stroke-linecap="round" stroke-linejoin="round"/>
<path d="M531.246 455.836C517.575 408.546 486.305 380.966 439.525 353.646C392.746 326.327 333.35 322.913 310.227 325.012C287.093 327.121 147.016 340.253 147.016 340.253L147.157 340.742C147.766 342.764 150.888 353.19 166.909 406.709C183.343 461.598 185.127 503.908 258.444 548.828C331.773 593.737 396.161 587.965 429.008 584.812C459.321 581.898 550.487 572.962 564.408 571.603C565.583 571.484 566.203 571.419 566.203 571.419C566.203 571.419 544.907 503.115 531.246 455.836ZM456.721 485.677C448.031 515.541 413.52 533.119 372.679 531.837C361.161 531.467 349.132 529.608 337.026 526.086C295.642 514.051 265.296 486.123 257.596 456.716C255.051 447.074 254.964 437.268 257.716 427.81C268.864 389.511 322.452 371.421 377.399 387.402C432.358 403.382 467.869 447.389 456.721 485.677Z" fill="white" stroke="black" stroke-linecap="round" stroke-linejoin="round"/>
<path d="M377.4 387.412C322.452 371.432 268.864 389.521 257.716 427.821C254.964 437.279 255.051 447.085 257.596 456.727C257.77 457.412 257.977 458.097 258.184 458.782C280.6 438.496 320.854 431.441 361.89 443.367C402.296 455.118 432.184 482.014 440.755 510.659C448.358 503.778 453.905 495.385 456.732 485.688C467.881 447.4 432.369 403.393 377.411 387.412H377.4Z" fill="white" stroke="black" stroke-linecap="round" stroke-linejoin="round"/>
<path d="M456.721 485.688C467.348 449.194 435.589 407.503 385.002 389.837C385.024 389.837 432.815 409.894 446.737 461.163C458.07 502.919 440.755 510.649 440.755 510.649C448.357 503.767 453.904 495.375 456.732 485.678L456.721 485.688Z" fill="black" stroke="black" stroke-linecap="round" stroke-linejoin="round"/>
<path d="M214.417 583.747C123.545 616.034 45.1695 612.947 15.0419 568.723C-29.3229 503.582 47.7907 373.845 187.281 278.95C326.77 184.055 475.799 159.943 520.164 225.083C564.528 290.224 487.415 419.961 347.925 514.856C342.911 518.269 337.875 521.585 332.839 524.814" stroke="black" stroke-linecap="round" stroke-linejoin="round"/>
<path d="M147.767 340.688L145.82 338.448L130.005 395.076L137.543 420.591L176.023 439.431C176.023 439.431 208.5 447.628 230.471 415.014C252.441 382.39 278.805 327.925 278.805 327.925L147.756 340.688H147.767Z" fill="#EDEDED"/>
<path d="M287.137 228.78C283.352 215.462 273.193 184.588 273.193 184.588H273.182L227.393 194.318C198.907 180.49 158.839 160.845 153.422 158.062C147.331 154.942 134.726 148.854 121.63 149.061L124.132 128.047H124.121C123.599 128.547 107.013 144.212 99.1599 152.17C94.8528 156.562 90.263 161.171 86.1734 168.423C78.1249 182.729 37.8605 254.251 37.8605 254.251C30.9757 266.785 25.8638 274.341 31.748 294.453C37.6321 314.564 58.1015 321.979 68.7495 327.403C79.4083 332.839 152.161 369.214 162.798 374.008C173.435 378.791 184.181 381.901 199.582 379.552C201.724 379.226 203.78 378.759 205.749 378.172C206.978 377.813 208.163 377.4 209.327 376.932C219.649 372.845 227.175 365.333 231.743 357.527C237.638 347.439 282.492 267.362 286.995 258.328C290.247 251.816 290.236 239.716 287.137 228.78Z" fill="white" stroke="black" stroke-linecap="round" stroke-linejoin="round"/>
<path d="M226.664 286.419C226.37 286.952 216.668 303.965 212.851 323.805C209.838 339.427 209.37 365.605 209.327 376.933C208.163 377.4 206.978 377.813 205.748 378.172C205.02 365.409 202.562 327.621 198.07 316.337C193.197 304.085 184.616 298.312 179.993 295.986C187.172 298.856 194.752 300.465 205.052 298.899C214.58 297.453 221.835 292.376 226.664 286.419Z" fill="black" stroke="black" stroke-linecap="round" stroke-linejoin="round"/>
<path fill-rule="evenodd" clip-rule="evenodd" d="M272.138 205.863C268.68 212.788 234.256 274.254 229.731 281.994C228.85 283.494 227.839 284.973 226.675 286.408H226.664C221.835 292.376 214.58 297.453 205.053 298.899C194.753 300.464 187.172 298.855 179.993 295.985C178.928 295.561 177.883 295.116 176.828 294.637C168.66 290.963 112.821 263.046 104.653 258.882C96.4736 254.707 80.768 249.022 76.2543 233.585C71.7297 218.148 75.6561 212.353 80.9421 202.732C80.9421 202.732 111.842 147.843 118.02 136.863C119.999 133.341 121.99 130.449 124.121 128.058H124.132C128.624 123.003 133.769 120.198 141.034 118.437C153.107 115.502 165.995 121.709 171.629 124.601C177.263 127.492 231.841 154.203 246.785 161.291C261.73 168.368 265.319 170.988 270.529 178.902C271.66 180.62 272.541 182.544 273.182 184.588C275.488 191.839 274.836 200.46 272.138 205.863Z" fill="url(#paint4_linear_140_4811)" stroke="black" stroke-linecap="round" stroke-linejoin="round"/>
<path d="M226.642 286.452C226.066 287.484 216.614 304.28 212.851 323.805C209.838 339.427 209.37 365.605 209.327 376.933C208.163 377.4 206.978 377.813 205.748 378.172C205.02 365.409 202.562 327.621 198.07 316.337C193.197 304.085 184.616 298.312 179.993 295.986C187.172 298.856 194.752 300.465 205.052 298.899C214.558 297.453 221.813 292.398 226.642 286.452Z" fill="black" stroke="black" stroke-linecap="round" stroke-linejoin="round"/>
<path fill-rule="evenodd" clip-rule="evenodd" d="M185.398 155.084L175.088 150.061L159.621 157.475L155.945 140.734L145.634 135.7L151.301 161.465L127.503 172.869L137.814 177.891L153.28 170.488L156.957 187.23L167.268 192.252L161.601 166.487L185.398 155.084Z" fill="white" stroke="black" stroke-linecap="round" stroke-linejoin="round"/>
<path d="M509.396 355.201C514.082 355.201 517.88 351.404 517.88 346.721C517.88 342.038 514.082 338.242 509.396 338.242C504.711 338.242 500.913 342.038 500.913 346.721C500.913 351.404 504.711 355.201 509.396 355.201Z" fill="white" stroke="black" stroke-linecap="round" stroke-linejoin="round"/>
<path d="M100.618 608.065C102.132 608.065 103.359 606.839 103.359 605.326C103.359 603.812 102.132 602.586 100.618 602.586C99.1041 602.586 97.877 603.812 97.877 605.326C97.877 606.839 99.1041 608.065 100.618 608.065Z" fill="black" stroke="black" stroke-linecap="round" stroke-linejoin="round"/>
<path d="M372.979 190.287C372.979 190.287 393.715 207.55 397.27 210.134C400.826 212.719 404.219 214.172 410.522 213.526C416.825 212.88 424.541 211.568 424.541 211.568L427.016 187.177L372.99 190.287H372.979Z" fill="black" stroke="black" stroke-linecap="round" stroke-linejoin="round"/>
<path d="M422.047 236.12L447.196 255.674C447.196 255.674 497.293 200.241 497.617 200.422C497.94 200.604 623.334 183.159 631.576 182.19C639.818 181.221 654.523 176.214 656.139 157.153C657.755 138.093 662.765 72.8468 663.735 64.6089C664.704 56.3711 665.028 51.5253 656.947 44.9027C648.867 38.2801 633.091 26.6401 633.091 26.6401L460.721 175.275L422.057 236.13L422.047 236.12Z" fill="url(#paint5_linear_140_4811)" stroke="black" stroke-linecap="round" stroke-linejoin="round"/>
<path d="M375.455 77.1172C374.111 92.9771 368.162 165.513 367.324 172.448C366.486 179.384 368.516 194.052 383.192 192.467C397.867 190.882 427.016 186.915 427.016 186.915L422.057 235.867L472.427 179.979C472.427 179.979 598.538 162.534 607.265 161.151C615.991 159.768 628.283 155.831 630.071 139.557C631.859 123.283 637.808 50.3543 638.404 42.6313C639 34.9083 638.606 21.4209 617.981 24.1971C597.356 26.9734 413.745 53.1305 403.836 54.5237C393.928 55.9169 376.96 59.632 375.485 77.1172H375.455Z" fill="white" stroke="black" stroke-linecap="round" stroke-linejoin="round"/>
<path d="M464.074 64.1244L433.066 68.6471C433.066 68.6471 395.473 112.249 395.322 112.249C395.17 112.249 427.329 145.867 427.774 145.867C428.218 145.867 456.812 141.152 456.812 141.152L424.804 108.251L464.074 64.1143V64.1244Z" fill="white" stroke="black" stroke-linecap="round" stroke-linejoin="round"/>
<path d="M464.074 64.1245C464.074 64.1245 488.668 83.3764 489.112 83.3764C489.557 83.3764 450.287 127.514 450.287 127.514L424.804 108.262L464.074 64.1245Z" fill="url(#paint6_linear_140_4811)" stroke="black" stroke-linecap="round" stroke-linejoin="round"/>
<path d="M427.774 145.867C427.774 145.867 452.519 165.856 452.812 165.856C453.105 165.856 482.891 161.565 482.891 161.414C482.891 161.262 456.812 141.152 456.812 141.152L427.774 145.867Z" fill="black" stroke="black" stroke-linecap="round" stroke-linejoin="round"/>
<path d="M450.297 127.503L424.804 108.251L456.812 141.152L482.891 161.424L450.297 127.503Z" fill="url(#paint7_linear_140_4811)" stroke="black" stroke-linecap="round" stroke-linejoin="round"/>
<path d="M502.838 134.833L527.988 155.215L558.339 151.096L532.664 130.916L502.838 134.833Z" fill="black" stroke="black" stroke-linecap="round" stroke-linejoin="round"/>
<path d="M509.606 57.4915C509.606 57.4915 538.916 52.8477 539.452 52.8477C539.987 52.8477 571.621 87.1518 571.621 87.1518L532.654 130.925L502.838 134.842L541.987 91.19L509.595 57.4915H509.606Z" fill="white" stroke="black" stroke-linecap="round" stroke-linejoin="round"/>
<path d="M571.631 87.1523L532.664 130.916L558.339 151.097L597.528 106.647L571.631 87.1523Z" fill="url(#paint8_linear_140_4811)" stroke="black" stroke-linecap="round" stroke-linejoin="round"/>
<path d="M539.451 52.8477L571.63 87.1518L597.527 106.646L564.075 72.3217L539.451 52.8477Z" fill="url(#paint9_linear_140_4811)" stroke="black" stroke-linecap="round" stroke-linejoin="round"/>
<defs>
<linearGradient id="paint0_linear_140_4811" x1="471.59" y1="272.917" x2="475.081" y2="272.917" gradientUnits="userSpaceOnUse">
<stop stop-color="white"/>
<stop offset="0.99" stop-color="#FFE866"/>
</linearGradient>
<linearGradient id="paint1_linear_140_4811" x1="239.422" y1="277.911" x2="664.244" y2="277.911" gradientUnits="userSpaceOnUse">
<stop stop-color="white"/>
<stop offset="0.99" stop-color="#FFE866"/>
</linearGradient>
<linearGradient id="paint2_linear_140_4811" x1="382.907" y1="196.922" x2="681.275" y2="343.123" gradientUnits="userSpaceOnUse">
<stop stop-color="#FFE866"/>
<stop offset="1" stop-color="#FFE866" stop-opacity="0"/>
</linearGradient>
<linearGradient id="paint3_linear_140_4811" x1="312.827" y1="510.16" x2="584.446" y2="586.14" gradientUnits="userSpaceOnUse">
<stop stop-color="white"/>
<stop offset="0.2" stop-color="#FFFAE0"/>
<stop offset="0.99" stop-color="#FFE866"/>
</linearGradient>
<linearGradient id="paint4_linear_140_4811" x1="74.2748" y1="208.581" x2="274.596" y2="208.581" gradientUnits="userSpaceOnUse">
<stop stop-color="white"/>
<stop offset="0.99" stop-color="#FFE866"/>
</linearGradient>
<linearGradient id="paint5_linear_140_4811" x1="422.047" y1="141.152" x2="664.22" y2="141.152" gradientUnits="userSpaceOnUse">
<stop stop-color="white"/>
<stop offset="0.99" stop-color="#FFE866"/>
</linearGradient>
<linearGradient id="paint6_linear_140_4811" x1="424.804" y1="95.814" x2="489.112" y2="95.814" gradientUnits="userSpaceOnUse">
<stop stop-color="white"/>
<stop offset="0.99" stop-color="#FFE866"/>
</linearGradient>
<linearGradient id="paint7_linear_140_4811" x1="424.804" y1="134.833" x2="482.891" y2="134.833" gradientUnits="userSpaceOnUse">
<stop stop-color="white"/>
<stop offset="0.99" stop-color="#FFE866"/>
</linearGradient>
<linearGradient id="paint8_linear_140_4811" x1="532.664" y1="119.124" x2="597.528" y2="119.124" gradientUnits="userSpaceOnUse">
<stop stop-color="white"/>
<stop offset="0.99" stop-color="#FFE866"/>
</linearGradient>
<linearGradient id="paint9_linear_140_4811" x1="539.451" y1="79.7418" x2="597.527" y2="79.7418" gradientUnits="userSpaceOnUse">
<stop stop-color="white"/>
<stop offset="0.99" stop-color="#FFE866"/>
</linearGradient>
</defs>
</svg>
