<svg xmlns="http://www.w3.org/2000/svg" width="1200" height="900" viewBox="0 0 1200 900">
  <defs>
    <linearGradient id="g" x1="0" y1="0" x2="1" y2="1">
      <stop offset="0" stop-color="#7CFF7A" stop-opacity="1"/>
      <stop offset="0.55" stop-color="#FFE866" stop-opacity="0.9"/>
      <stop offset="1" stop-color="#69A7FF" stop-opacity="1"/>
    </linearGradient>
    <filter id="blur" x="-20%" y="-20%" width="140%" height="140%">
      <feGaussianBlur stdDeviation="18"/>
    </filter>
  </defs>

  <rect width="1200" height="900" fill="none"/>

  <g opacity="0.9" filter="url(#blur)">
    <circle cx="350" cy="330" r="220" fill="url(#g)"/>
    <circle cx="740" cy="420" r="260" fill="url(#g)" opacity="0.85"/>
    <circle cx="560" cy="640" r="230" fill="url(#g)" opacity="0.75"/>
  </g>

  <g opacity="0.55">
    <path d="M120 720 C 260 520, 460 820, 640 620 C 780 460, 970 520, 1080 380" fill="none" stroke="#7CFF7A" stroke-width="6"/>
    <path d="M100 650 C 280 520, 440 720, 640 560 C 860 390, 980 460, 1120 320" fill="none" stroke="#FFE866" stroke-width="4" opacity="0.7"/>
    <path d="M140 780 C 320 610, 480 860, 680 700 C 840 570, 1030 610, 1140 470" fill="none" stroke="#69A7FF" stroke-width="4" opacity="0.6"/>
  </g>
</svg>

